<?xml version="1.0" standalone="no"?>
<!DOCTYPE svg PUBLIC "-//W3C//DTD SVG 20010904//EN"
 "http://www.w3.org/TR/2001/REC-SVG-20010904/DTD/svg10.dtd">
<svg version="1.0" xmlns="http://www.w3.org/2000/svg"
 width="400.000000pt" height="400.000000pt" viewBox="0 0 400.000000 400.000000"
 preserveAspectRatio="xMidYMid meet">
<metadata>
Created by potrace 1.11, written by Peter Selinger 2001-2013
</metadata>
<g transform="translate(0.000000,400.000000) scale(0.100000,-0.100000)"
fill="#000000" stroke="none">
<path d="M1870 3982 c0 -5 -19 -7 -42 -7 -24 1 -79 -4 -123 -12 -44 -7 -90
-13 -102 -13 -13 0 -23 -5 -23 -11 0 -5 -4 -7 -10 -4 -12 8 -173 -36 -182 -49
-4 -6 -4 -14 -1 -20 3 -5 1 -6 -6 -2 -6 4 -9 12 -6 17 9 13 0 11 -43 -8 -20
-9 -40 -15 -44 -15 -5 1 -8 -2 -8 -8 0 -5 -7 -7 -15 -4 -8 4 -15 1 -15 -5 0
-6 -3 -10 -7 -9 -17 3 -62 -15 -57 -23 3 -5 -2 -6 -10 -3 -10 4 -16 1 -16 -7
0 -7 -3 -10 -6 -6 -9 9 -144 -61 -144 -75 0 -6 -3 -8 -7 -5 -6 6 -67 -26 -88
-46 -7 -7 -6 -8 2 -3 6 3 14 2 18 -3 3 -6 -5 -8 -20 -5 -14 2 -25 1 -25 -3 0
-5 -12 -14 -28 -20 -15 -7 -44 -28 -65 -48 -20 -19 -37 -33 -37 -30 0 3 -9 -3
-19 -12 -11 -9 -17 -21 -14 -26 3 -6 1 -7 -6 -3 -7 5 -33 -12 -66 -43 -30 -28
-51 -51 -48 -51 3 0 -6 -9 -21 -21 -14 -11 -23 -25 -20 -31 4 -6 2 -8 -4 -4
-12 7 -112 -101 -112 -123 0 -8 -3 -11 -7 -8 -6 6 -69 -72 -67 -83 1 -3 -5 -9
-12 -15 -6 -5 -28 -35 -47 -66 -34 -53 -35 -57 -19 -74 16 -18 16 -18 -1 -5
-22 16 -19 21 -83 -103 -25 -49 -43 -95 -40 -103 3 -8 2 -13 -3 -10 -10 7 -33
-49 -24 -58 4 -3 1 -6 -5 -6 -7 0 -12 -8 -12 -18 0 -10 -5 -23 -12 -30 -9 -9
-8 -16 5 -30 14 -15 14 -19 2 -19 -8 0 -12 4 -9 9 3 4 1 8 -4 8 -12 0 -25 -47
-16 -61 4 -6 14 -3 27 8 18 14 17 12 -2 -10 -24 -27 -38 -36 -26 -17 3 6 1 10
-4 10 -6 0 -12 -8 -13 -17 -2 -32 -3 -38 -9 -48 -3 -5 -5 -17 -4 -25 0 -8 -4
-18 -10 -22 -6 -5 -6 -17 2 -38 11 -28 10 -30 -4 -19 -13 11 -15 10 -11 -6 2
-11 9 -19 14 -18 6 1 11 -5 11 -13 0 -10 -4 -11 -11 -4 -5 5 -14 10 -20 10 -5
0 -7 -2 -4 -5 3 -3 0 -36 -7 -74 -11 -66 -11 -70 9 -80 21 -11 21 -11 -1 -6
-20 6 -22 3 -20 -40 1 -25 -1 -45 -4 -45 -8 0 -5 -33 6 -49 5 -10 4 -12 -3 -7
-15 9 -15 1 -1 -26 8 -15 8 -19 -1 -13 -8 5 -10 -7 -9 -39 2 -32 7 -45 15 -42
13 5 13 -19 -1 -31 -4 -4 -5 -2 -1 5 4 6 2 12 -4 12 -8 0 -9 -7 -5 -17 4 -10
7 -40 6 -67 -2 -44 0 -48 13 -37 9 7 14 17 11 21 -3 5 -1 11 4 14 16 10 6 -22
-14 -44 -17 -18 -14 -25 9 -21 5 1 5 -4 -1 -11 -18 -22 10 -208 31 -208 6 0 4
-5 -4 -10 -13 -9 -13 -10 0 -11 8 -1 20 0 25 1 6 1 7 -2 3 -6 -4 -4 -2 -14 4
-23 7 -9 2 -7 -10 4 l-23 19 7 -29 c3 -17 14 -39 23 -49 9 -11 11 -17 5 -13
-7 4 -9 -2 -6 -18 2 -14 8 -25 13 -25 5 0 8 -3 7 -7 -5 -15 25 -103 34 -103 5
0 7 -4 4 -8 -2 -4 5 -28 16 -52 12 -25 22 -47 23 -50 9 -34 18 -49 27 -44 7 4
8 2 4 -5 -8 -12 69 -161 83 -161 4 0 8 -6 8 -13 0 -7 18 -40 41 -73 67 -96 78
-108 93 -99 12 7 12 6 1 -7 -7 -9 -9 -18 -5 -20 5 -1 26 -25 47 -51 22 -26 45
-46 51 -43 7 2 12 -3 11 -12 0 -10 6 -16 16 -16 10 1 14 -4 11 -12 -6 -15 55
-71 72 -66 5 2 7 0 3 -4 -7 -6 22 -37 84 -90 39 -33 48 -36 66 -22 15 12 16
11 4 -4 -15 -19 -8 -38 14 -38 8 0 14 -4 14 -10 0 -5 7 -10 15 -10 8 0 15 -5
15 -11 0 -6 7 -8 16 -5 8 3 12 2 9 -3 -9 -16 16 -25 27 -10 8 11 8 10 4 -4 -4
-13 0 -20 14 -24 11 -3 20 -9 20 -13 0 -4 7 -11 16 -14 10 -4 13 -2 9 7 -4 6
0 4 8 -5 7 -9 43 -33 79 -52 50 -26 68 -32 77 -23 9 9 11 8 6 -4 -8 -22 41
-45 61 -28 12 10 13 8 8 -6 -5 -12 -4 -16 3 -12 6 4 13 2 15 -3 2 -6 10 -12
18 -13 8 -2 21 -6 27 -10 7 -5 17 -5 23 -2 5 3 10 1 10 -5 0 -6 5 -8 10 -5 5
3 10 2 10 -3 0 -12 77 -35 90 -27 6 3 10 2 10 -3 0 -11 130 -46 138 -38 3 3
10 2 17 -4 11 -9 54 -18 127 -25 21 -2 42 -6 47 -9 5 -4 12 -2 16 3 3 5 -3 14
-12 20 -10 6 -13 11 -7 11 14 0 36 -25 28 -32 -3 -3 15 -8 41 -10 36 -2 44 0
40 11 -5 11 -3 12 10 1 20 -17 125 -21 144 -6 11 8 13 8 7 -1 -5 -9 0 -13 14
-13 13 0 19 4 14 12 -5 7 -3 8 6 3 14 -9 165 -4 190 5 3 1 13 2 23 1 9 -1 17
4 17 13 0 8 4 18 10 21 6 3 7 -1 4 -9 -5 -12 1 -16 21 -16 14 0 24 4 21 9 -3
4 5 7 19 6 33 -4 158 29 148 38 -4 5 5 6 21 3 22 -4 27 -2 22 11 -5 13 -4 14
8 4 9 -8 21 -9 37 -2 54 21 73 28 89 30 6 0 10 6 10 12 0 6 -7 8 -16 5 -14 -5
-15 -4 -4 9 11 14 14 13 25 -2 8 -10 17 -15 21 -11 4 5 -1 18 -12 30 l-19 23
21 -18 c12 -10 24 -15 26 -10 3 4 3 3 2 -4 -4 -18 140 47 157 70 3 5 9 8 13 7
13 -3 96 42 96 53 0 5 3 7 6 4 4 -4 19 2 34 13 21 15 27 27 25 50 -1 17 1 32
5 35 4 3 6 -9 5 -25 -1 -17 0 -30 4 -30 7 0 47 27 68 45 6 5 28 21 47 35 20
14 34 30 31 37 -2 7 2 10 10 6 8 -3 18 2 21 11 3 9 9 14 14 11 4 -2 30 20 59
50 28 30 51 53 51 50 0 -6 106 112 140 155 14 18 30 38 36 44 28 30 113 160
108 167 -2 4 -13 6 -24 4 -12 -2 -18 0 -15 5 3 5 16 7 30 4 29 -5 41 11 24 32
-13 16 -23 51 -11 39 4 -4 7 -10 7 -13 0 -15 17 -32 26 -26 6 4 5 11 -2 20
-10 12 -10 14 1 12 16 -4 83 119 74 134 -4 7 -2 8 4 4 7 -4 13 -2 13 3 2 17 4
23 28 76 12 28 25 62 28 78 3 15 10 30 14 33 5 3 9 14 9 26 0 16 -3 18 -13 10
-10 -8 -13 -6 -14 11 -1 13 1 17 5 10 12 -20 31 0 46 50 15 49 12 56 -17 52
-9 -2 -15 1 -12 5 3 5 14 7 24 5 15 -3 21 5 29 38 5 23 10 49 10 57 0 8 3 24
8 34 6 15 4 17 -7 11 -12 -8 -12 -6 0 8 7 9 11 24 7 32 -3 10 -2 13 4 10 7 -4
9 6 7 29 -2 19 -1 37 4 38 10 4 21 288 11 288 -4 0 -12 -3 -18 -7 -5 -5 -1 0
9 10 18 16 16 21 -8 18 -5 -1 -2 5 7 12 10 8 15 17 11 20 -3 4 -6 25 -5 48 1
23 -1 46 -5 53 -4 6 -8 18 -8 26 0 8 -4 21 -9 29 -6 9 -5 12 1 8 7 -4 7 8 1
36 -5 23 -11 60 -15 82 -3 22 -11 52 -19 66 -7 15 -11 29 -8 32 8 8 -39 156
-48 151 -4 -2 -6 4 -6 13 2 23 -21 93 -31 93 -4 0 -8 10 -8 22 -1 13 -7 24
-13 26 -5 2 -8 8 -4 13 3 5 0 9 -5 9 -6 0 -10 3 -9 8 4 15 -14 52 -23 47 -5
-3 -6 1 -3 9 4 10 1 16 -7 16 -7 0 -10 3 -6 6 11 11 -94 186 -109 180 -6 -2
-10 6 -10 18 1 16 -5 21 -21 20 -13 -1 -20 3 -17 7 3 5 10 7 15 4 5 -4 9 -1 9
4 0 6 -3 11 -7 11 -5 0 -16 13 -25 30 -13 23 -22 28 -42 24 -13 -2 -27 0 -30
5 -3 4 6 7 19 5 30 -3 32 7 6 30 -12 11 -25 15 -33 10 -9 -5 -8 -2 2 11 14 17
13 18 -2 12 -11 -4 -15 -2 -12 6 6 16 -90 109 -102 99 -5 -4 -6 -3 -1 2 13 18
7 27 -12 21 -11 -3 -22 -1 -26 4 -4 7 1 8 12 4 14 -5 13 -1 -6 20 -13 15 -28
24 -34 20 -6 -3 -7 -1 -4 4 8 13 -17 36 -27 25 -4 -4 -7 -2 -6 3 5 21 -1 29
-10 15 -8 -13 -10 -13 -10 1 0 9 -9 24 -20 34 -11 10 -20 14 -20 10 0 -5 -7 0
-15 11 -8 10 -15 15 -15 10 0 -5 -9 3 -21 18 -11 14 -24 24 -29 21 -4 -3 -11
2 -14 11 -5 13 -9 14 -21 4 -13 -11 -14 -10 -10 2 4 10 -11 25 -45 46 -28 18
-56 32 -61 32 -5 0 -9 3 -9 8 0 4 -11 12 -25 18 -18 9 -25 9 -29 0 -2 -6 -5
-3 -5 6 -1 15 -35 35 -53 30 -5 -1 -8 2 -8 7 0 11 -61 37 -79 33 -8 -2 -10 1
-5 9 5 9 1 11 -14 7 -12 -4 -20 -2 -16 3 3 5 0 9 -5 9 -20 0 -26 2 -46 16 -28
20 -34 18 -31 -11 2 -13 -1 -22 -6 -19 -5 3 -7 12 -5 18 8 21 -5 31 -65 51
-47 16 -59 16 -73 5 -13 -11 -15 -10 -9 3 6 16 -26 27 -90 31 -13 0 -22 4 -19
9 4 6 -29 11 -79 10 -10 0 -18 4 -18 9 0 5 -3 7 -8 5 -4 -3 -31 -1 -60 5 -41
7 -57 6 -70 -4 -9 -7 -13 -8 -9 -2 4 7 -2 14 -13 17 -11 3 -23 1 -26 -4 -4 -6
-10 -6 -17 -1 -14 11 -46 10 -66 -3 -9 -5 -12 -4 -7 3 5 8 -8 11 -39 10 -26 0
-45 -5 -45 -12 0 -7 -3 -7 -8 -1 -8 12 -62 17 -62 7z m136 -17 c-1 -8 -8 -21
-16 -28 -10 -10 -11 -9 -4 3 5 8 9 18 10 23 3 14 4 17 8 17 2 0 3 -7 2 -15z
m-180 -7 c4 -6 3 -8 -4 -4 -6 3 -13 2 -17 -4 -3 -5 -11 -10 -18 -10 -6 0 -2 7
9 15 23 18 21 17 30 3z m145 -1 c-6 -8 -9 -16 -6 -19 3 -2 -2 -5 -10 -5 -13 0
-13 3 2 19 19 21 31 25 14 5z m96 -4 c0 -9 -4 -10 -14 -2 -7 6 -13 12 -13 14
0 1 6 2 13 2 8 0 14 -6 14 -14z m142 14 c-2 -1 -13 -9 -24 -17 -19 -14 -19
-14 -6 3 7 9 18 17 24 17 6 0 8 -1 6 -3z m-482 -20 c0 -8 -6 -14 -14 -14 -9 0
-10 4 -2 14 6 7 12 13 14 13 1 0 2 -6 2 -13z m37 4 c3 -5 -1 -11 -9 -14 -9 -4
-12 -1 -8 9 6 16 10 17 17 5z m-104 -5 c0 -2 -8 -10 -17 -17 -16 -13 -17 -12
-4 4 13 16 21 21 21 13z m26 -22 c1 -9 0 -13 -4 -10 -3 4 -7 14 -8 22 -1 9 0
13 4 10 3 -4 7 -14 8 -22z m239 8 c-3 -3 -11 0 -18 7 -9 10 -8 11 6 5 10 -3
15 -9 12 -12z m168 -10 c20 0 38 -1 40 -2 12 -8 37 -6 37 3 0 9 2 9 8 0 11
-18 75 -20 90 -3 10 13 11 12 5 -4 -5 -16 -3 -18 15 -14 12 4 25 2 28 -3 3 -6
13 -9 22 -8 10 1 19 0 22 -1 21 -8 46 -7 57 2 10 8 12 7 8 -4 -8 -19 38 -30
56 -14 9 8 10 8 5 -1 -4 -8 -2 -14 6 -15 7 0 18 -2 23 -2 6 -1 16 -5 23 -10 7
-4 20 -5 28 -2 8 3 13 2 10 -3 -5 -8 48 -26 67 -22 4 0 7 -3 7 -9 0 -6 3 -9 8
-9 11 3 64 -19 152 -62 44 -21 80 -35 80 -31 0 4 4 3 8 -3 11 -15 47 -42 39
-29 -3 6 0 11 7 11 8 0 12 -5 10 -11 -2 -6 13 -21 32 -33 39 -25 59 -30 48
-10 -4 6 -4 9 0 5 4 -3 8 -10 9 -15 2 -17 27 -34 39 -26 18 11 37 12 43 3 2
-4 -4 -7 -15 -6 -11 0 -20 -2 -20 -6 0 -5 2 -8 5 -8 3 0 13 -8 23 -17 10 -10
31 -27 46 -38 16 -11 34 -25 41 -32 7 -7 15 -9 19 -6 3 4 6 -1 6 -10 0 -8 9
-18 19 -22 11 -3 22 -13 25 -21 3 -9 11 -12 18 -8 7 4 10 4 6 -1 -9 -10 10
-35 26 -35 6 0 4 5 -4 10 -8 5 -10 10 -4 10 6 0 18 -8 25 -17 10 -11 10 -14 2
-9 -18 10 -16 -2 3 -21 13 -14 17 -14 26 -2 8 11 9 10 4 -4 -4 -13 5 -30 30
-55 20 -20 43 -47 51 -59 8 -13 20 -20 27 -16 6 3 8 3 4 -2 -4 -4 2 -21 13
-37 18 -24 23 -27 37 -16 14 10 15 10 5 -1 -15 -17 3 -61 25 -61 9 0 12 -3 9
-6 -10 -11 13 -45 25 -38 6 4 8 3 4 -4 -3 -6 1 -18 10 -26 8 -9 13 -16 9 -16
-4 0 37 -79 52 -99 1 -2 10 2 19 10 16 13 16 12 4 -6 -11 -18 -8 -29 17 -80
17 -33 43 -92 58 -132 15 -40 31 -71 34 -69 3 2 7 -6 7 -17 1 -12 4 -31 7 -42
3 -11 6 -26 6 -34 1 -8 7 -11 17 -7 14 5 15 4 4 -9 -9 -11 -10 -22 0 -47 6
-18 14 -49 16 -68 3 -19 8 -42 11 -50 3 -8 5 -21 4 -29 -2 -9 3 -12 15 -7 14
5 15 4 5 -8 -10 -12 -10 -63 -1 -86 3 -8 7 -69 9 -143 1 -52 4 -66 14 -61 9 6
9 5 0 -7 -7 -9 -11 -49 -10 -107 1 -50 -1 -92 -5 -92 -3 0 -5 -24 -5 -54 1
-30 -1 -52 -5 -49 -5 2 -8 -7 -8 -21 0 -13 -3 -32 -7 -42 -5 -13 -3 -16 8 -12
10 4 15 -1 15 -13 0 -14 -3 -16 -15 -6 -12 10 -14 8 -9 -11 4 -12 2 -20 -3
-16 -5 3 -10 -3 -10 -13 -3 -42 -8 -62 -30 -133 -12 -41 -23 -77 -24 -80 0 -3
-4 -11 -9 -18 -4 -7 -5 -20 -2 -28 3 -9 1 -12 -4 -9 -6 3 -10 0 -10 -8 0 -8
-7 -27 -14 -43 -8 -15 -13 -31 -10 -36 3 -4 0 -8 -6 -8 -6 0 -8 -4 -5 -10 3
-5 1 -10 -4 -10 -6 0 -11 -6 -11 -13 0 -6 -12 -34 -26 -61 -14 -27 -20 -45
-12 -41 7 3 4 -1 -7 -10 -17 -14 -18 -17 -5 -26 12 -9 12 -10 -3 -5 -26 8 -45
-37 -26 -61 11 -15 11 -16 -1 -5 -17 14 -34 16 -25 2 3 -5 1 -10 -4 -10 -6 0
-11 -7 -11 -15 0 -8 -4 -15 -8 -15 -4 0 -16 -14 -26 -30 -15 -26 -16 -34 -4
-48 11 -15 11 -15 -3 -5 -13 11 -19 10 -33 -6 -10 -11 -15 -25 -10 -32 4 -7 3
-10 -4 -5 -6 3 -14 2 -17 -4 -9 -15 14 -41 29 -33 6 3 7 2 3 -2 -9 -11 -37
-16 -34 -7 1 4 -2 9 -8 12 -5 3 -20 -10 -32 -29 -13 -19 -23 -31 -23 -27 0 3
-16 -12 -36 -34 -27 -29 -35 -46 -31 -63 5 -19 4 -20 -6 -6 -12 15 -15 15 -35
-8 -12 -14 -19 -30 -15 -35 3 -7 1 -8 -6 -4 -14 9 -43 -12 -35 -25 3 -5 0 -8
-8 -7 -7 2 -12 -4 -10 -12 2 -8 0 -12 -3 -8 -10 9 -76 -42 -69 -53 3 -5 -3 -6
-12 -2 -14 5 -16 3 -11 -11 4 -10 3 -15 -3 -11 -13 8 -72 -34 -65 -46 4 -5 -1
-6 -9 -3 -8 3 -23 -3 -33 -13 -10 -10 -35 -27 -55 -37 -20 -11 -35 -23 -32
-28 3 -4 -2 -5 -10 -2 -9 3 -16 1 -16 -5 0 -6 -8 -11 -18 -11 -24 0 -50 -30
-47 -52 2 -10 0 -20 -5 -23 -5 -3 -7 3 -5 12 1 10 1 21 -2 25 -5 9 -93 -33
-93 -45 0 -4 -4 -6 -9 -3 -11 7 -113 -39 -105 -46 2 -3 -3 -5 -13 -5 -49 0
-53 -3 -49 -28 3 -13 1 -27 -3 -30 -5 -2 -8 5 -7 18 1 27 5 27 -132 -6 -62
-16 -135 -31 -162 -34 -28 -3 -50 -9 -50 -12 0 -6 -59 -10 -174 -10 -40 0 -74
-5 -84 -13 -12 -10 -14 -10 -8 0 6 9 -11 11 -73 10 -45 -2 -81 -1 -81 2 0 12
-73 10 -87 -1 -11 -10 -14 -10 -11 2 2 9 -6 14 -22 15 -14 1 -32 4 -40 7 -38
14 -65 15 -79 4 -10 -8 -13 -8 -8 -1 10 17 -23 26 -41 12 -13 -10 -14 -10 -8
0 8 13 -6 21 -46 26 -13 1 -28 5 -33 8 -6 3 -28 11 -50 17 -22 7 -49 16 -60
21 -11 4 -51 20 -90 36 -38 16 -73 28 -77 26 -5 -1 -8 3 -8 9 0 6 -7 8 -16 5
-8 -3 -12 -2 -9 4 6 9 -8 14 -27 11 -5 0 -8 3 -8 8 0 8 -53 34 -65 32 -3 -1
-14 8 -26 20 -11 11 -27 18 -35 15 -8 -3 -12 -2 -9 4 3 5 -6 17 -20 26 -21 14
-28 14 -43 3 -15 -12 -16 -12 -4 2 15 19 -2 38 -30 34 -10 -2 -15 2 -12 10 3
7 -14 25 -40 41 -25 16 -46 32 -46 37 0 4 -5 7 -11 7 -5 0 -8 -4 -5 -8 3 -5
-1 -9 -9 -9 -11 0 -12 4 -3 14 6 7 8 16 5 20 -8 8 -38 -17 -32 -26 2 -4 -2 -8
-10 -8 -10 0 -12 4 -5 12 5 7 6 16 2 20 -4 5 -2 5 5 1 6 -3 14 -2 17 2 3 5
-12 26 -34 46 -38 35 -58 46 -45 26 4 -6 -1 -7 -11 -3 -11 4 -13 8 -6 11 21 7
13 25 -9 19 -16 -4 -19 -3 -11 5 15 15 -13 42 -36 33 -13 -5 -14 -3 -5 5 8 9
7 17 -5 31 -8 10 -20 15 -25 12 -6 -3 -7 -1 -3 5 3 6 -4 18 -16 26 -12 9 -19
16 -14 16 4 0 -7 19 -26 43 -44 56 -55 67 -61 61 -3 -3 -4 3 -3 13 0 10 -4 17
-11 16 -7 -2 -10 3 -7 10 2 7 -4 22 -13 32 -10 11 -24 32 -30 47 -7 16 -16 28
-21 28 -5 0 -9 6 -9 13 0 6 -11 30 -25 52 -14 22 -28 50 -32 63 -4 12 -12 22
-17 22 -6 0 -8 3 -6 8 7 12 -12 54 -22 48 -5 -3 -7 3 -4 14 3 11 1 20 -4 20
-5 0 -9 8 -10 18 -1 9 -7 31 -14 47 -7 17 -12 33 -11 38 1 4 -2 7 -6 7 -4 0
-9 12 -10 27 -1 14 -10 35 -20 46 -9 11 -11 17 -5 13 9 -5 11 -2 8 8 -16 51
-14 49 -33 35 -16 -12 -16 -12 -1 4 16 18 15 77 -2 77 -4 0 -6 9 -4 20 2 11
-1 22 -6 25 -5 4 -7 11 -4 16 9 14 -14 122 -28 131 -9 6 -9 8 1 8 6 0 12 12
12 26 0 20 -4 25 -16 20 -10 -4 -13 -2 -7 7 12 19 11 117 -1 110 -6 -4 -5 1 2
10 17 20 13 76 -7 102 -15 18 -15 19 2 6 16 -13 17 -10 13 30 -2 24 -2 48 2
54 13 21 9 46 -7 40 -11 -3 -11 -1 3 9 12 10 17 23 14 41 -3 14 -2 25 3 25 4
0 7 16 5 36 -1 19 1 37 6 40 4 3 8 12 8 20 0 8 -4 13 -8 10 -5 -3 -9 1 -9 8 0
8 6 12 13 9 8 -3 11 5 10 26 -1 17 1 32 4 33 6 3 52 163 53 186 0 6 3 12 7 12
4 0 11 16 17 35 8 25 8 35 -1 39 -6 2 -4 5 4 5 22 1 41 55 26 72 -8 9 -8 10 1
5 9 -5 20 9 35 41 13 26 26 49 30 51 3 2 5 14 2 27 -2 13 0 26 6 30 6 3 7 -1
4 -9 -10 -27 5 -17 20 13 12 22 12 31 3 40 -9 10 -8 11 7 5 16 -6 18 -4 13 10
-4 10 -3 15 3 11 10 -6 36 29 42 55 2 8 11 21 21 29 10 7 16 20 13 28 -3 8 -2
12 2 10 4 -3 13 1 20 9 7 8 9 14 5 14 -4 0 3 7 15 16 14 9 21 22 18 31 -3 8
-2 12 2 9 10 -6 142 138 142 155 0 7 3 10 6 7 3 -4 15 3 26 14 16 16 17 22 6
36 -12 15 -11 16 5 3 13 -11 20 -11 32 -1 8 7 12 17 8 24 -3 6 -3 8 2 4 4 -4
31 12 59 36 28 23 70 55 94 71 23 15 42 31 42 36 0 4 10 11 22 15 23 7 78 43
89 57 3 5 9 8 13 8 15 -1 35 12 30 20 -3 5 2 6 10 3 9 -3 16 -1 16 5 0 6 3 10
8 9 14 -4 52 14 52 24 0 6 3 8 6 5 4 -3 15 -2 26 4 13 7 17 16 13 30 -4 11 -2
19 5 19 6 0 9 -4 5 -9 -11 -19 17 -22 37 -4 12 10 18 13 15 6 -5 -7 7 -6 33 4
22 9 40 20 40 25 0 5 4 7 9 4 5 -3 28 1 52 10 40 14 166 49 214 60 11 2 61 9
110 16 58 8 95 18 103 27 11 14 11 14 7 1 -4 -12 1 -15 22 -14 16 1 30 3 33 4
3 1 40 1 83 1 72 0 77 2 65 17 -12 16 -11 16 7 1 11 -9 37 -17 58 -17z m37 24
c0 -2 -7 -7 -16 -10 -8 -3 -12 -2 -9 4 6 10 25 14 25 6z m-589 -39 c-10 -9
-11 -8 -5 6 3 10 9 15 12 12 3 -3 0 -11 -7 -18z m869 9 c0 -2 -9 -6 -20 -9
-11 -3 -18 -1 -14 4 5 9 34 13 34 5z m-916 -21 c-4 -8 -11 -12 -16 -9 -6 4 -5
10 3 15 19 12 19 11 13 -6z m86 11 c0 -2 -8 -10 -17 -17 -16 -13 -17 -12 -4 4
13 16 21 21 21 13z m967 -19 c0 -8 -6 -14 -14 -14 -9 0 -10 4 -2 14 6 7 12 13
14 13 1 0 2 -6 2 -13z m30 -19 c-3 -8 -6 -5 -6 6 -1 11 2 17 5 13 3 -3 4 -12
1 -19z m43 -2 c0 -2 -8 -10 -17 -17 -16 -13 -17 -12 -4 4 13 16 21 21 21 13z
m-1257 -21 c15 1 25 -1 22 -4 -13 -12 -56 -7 -68 8 -10 14 -10 14 3 5 8 -6 27
-10 43 -9z m-73 -19 c0 -2 -7 -7 -16 -10 -8 -3 -12 -2 -9 4 6 10 25 14 25 6z
m1437 -10 c-1 -6 3 -10 9 -9 6 1 11 -5 11 -13 0 -18 0 -18 -25 9 -17 17 -18
24 -8 24 8 0 14 -5 13 -11z m77 -34 c3 -5 -1 -9 -9 -9 -8 0 -12 4 -9 9 3 4 7
8 9 8 2 0 6 -4 9 -8z m-1640 -31 c-2 -3 -12 3 -22 13 -16 17 -16 18 5 5 12 -7
20 -15 17 -18z m1681 19 c-4 -6 -1 -19 6 -28 12 -16 12 -16 -5 0 -16 14 -15
38 0 38 3 0 2 -5 -1 -10z m-1725 -4 c0 -2 -8 -10 -17 -17 -16 -13 -17 -12 -4
4 13 16 21 21 21 13z m10 -26 c0 -5 -5 -10 -11 -10 -5 0 -7 5 -4 10 3 6 8 10
11 10 2 0 4 -4 4 -10z m-63 -14 c0 -8 -5 -14 -11 -13 -6 1 -10 -3 -9 -9 1 -6
-5 -11 -12 -11 -11 0 -12 4 -4 13 5 6 6 14 2 16 -4 3 -3 3 4 2 7 -2 15 1 18 6
8 14 12 12 12 -4z m1854 -13 c13 -16 12 -17 -3 -4 -10 7 -18 15 -18 17 0 8 8
3 21 -13z m83 -39 c3 -8 2 -12 -4 -9 -6 3 -10 10 -10 16 0 14 7 11 14 -7z
m-2038 -20 c1 -9 0 -13 -4 -10 -3 4 -7 14 -8 22 -1 9 0 13 4 10 3 -4 7 -14 8
-22z m44 10 c0 -8 -19 -13 -24 -6 -3 5 1 9 9 9 8 0 15 -2 15 -3z m-153 -62
c-10 -10 -14 -22 -10 -25 3 -4 1 -7 -5 -7 -6 0 -10 9 -9 19 0 11 4 18 8 15 4
-2 10 0 14 6 3 5 9 10 12 10 3 0 -1 -8 -10 -18z m33 -16 c0 -2 -7 -7 -16 -10
-8 -3 -12 -2 -9 4 6 10 25 14 25 6z m2274 -4 c3 -5 -1 -9 -9 -9 -8 0 -12 4 -9
9 3 4 7 8 9 8 2 0 6 -4 9 -8z m56 -57 c-7 -8 -17 -15 -23 -15 -6 0 -2 7 9 15
25 19 30 19 14 0z m-2482 -45 c-7 -11 -17 -20 -22 -20 -5 0 -1 9 9 20 10 11
20 20 22 20 2 0 -2 -9 -9 -20z m-53 0 c-3 -5 -1 -10 6 -10 7 0 10 -3 6 -6 -9
-9 -28 6 -22 17 4 5 8 9 11 9 3 0 2 -4 -1 -10z m2582 -7 c0 -9 -4 -10 -14 -2
-7 6 -13 12 -13 14 0 1 6 2 13 2 8 0 14 -6 14 -14z m-2617 -72 c0 -6 -4 -12
-8 -15 -5 -3 -9 1 -9 9 0 8 4 15 9 15 4 0 8 -4 8 -9z m2755 -41 c3 -5 1 -10
-4 -10 -6 0 -11 5 -11 10 0 6 2 10 4 10 3 0 8 -4 11 -10z m-2800 -28 c-3 -3
-11 0 -18 7 -9 10 -8 11 6 5 10 -3 15 -9 12 -12z m-59 -11 c0 -11 -5 -17 -13
-14 -10 4 -11 9 -2 19 15 18 15 18 15 -5z m2884 15 c0 -2 -8 -10 -17 -17 -16
-13 -17 -12 -4 4 13 16 21 21 21 13z m31 -23 c13 -16 12 -17 -3 -4 -17 13 -22
21 -14 21 2 0 10 -8 17 -17z m-2931 -34 c0 -5 -4 -9 -10 -9 -5 0 -9 6 -7 13 1
6 -4 11 -11 9 -8 -1 -11 2 -7 8 7 12 35 -5 35 -21z m3037 -128 c0 -11 -5 -18
-9 -15 -4 3 -5 11 -1 19 7 21 12 19 10 -4z m-3157 -30 c0 -5 -8 -15 -17 -22
-16 -12 -17 -12 -6 2 7 9 10 19 6 22 -3 4 -1 7 5 7 7 0 12 -4 12 -9z m3196
-16 c-1 -8 -5 -17 -8 -21 -5 -4 -4 16 1 34 3 9 9 -1 7 -13z m41 -52 c0 -9 -4
-10 -14 -2 -7 6 -13 12 -13 14 0 1 6 2 13 2 8 0 14 -6 14 -14z m-3306 -20 c12
-16 12 -17 -2 -6 -9 7 -20 9 -24 5 -5 -4 -5 -1 -1 6 9 16 11 15 27 -5z m3320
-6 c-10 -9 -11 -8 -5 6 3 10 9 15 12 12 3 -3 0 -11 -7 -18z m34 -46 c-9 -8
-36 -10 -30 -2 2 4 11 8 20 8 8 0 13 -3 10 -6z m-3405 -19 c0 -5 -7 -9 -15 -9
-8 0 -12 4 -9 9 3 4 9 8 15 8 5 0 9 -4 9 -8z m3439 -55 c8 -10 7 -14 -2 -14
-8 0 -14 6 -14 14 0 7 1 13 2 13 2 0 8 -6 14 -13z m-3468 -40 c-10 -9 -11 -8
-5 6 3 10 9 15 12 12 3 -3 0 -11 -7 -18z m3505 -21 c1 -7 -4 -13 -12 -13 -9 0
-11 4 -4 12 5 7 8 15 5 18 -3 4 -2 5 2 2 4 -3 8 -11 9 -19z m-3539 -1 c0 -8
-3 -13 -5 -10 -3 3 -12 -1 -21 -7 -10 -8 -9 -4 3 10 23 26 23 26 23 7z m-23
-57 c1 -7 5 -20 10 -28 7 -12 6 -13 -4 -3 -8 7 -15 23 -17 35 -2 12 -1 19 3
16 3 -3 6 -12 8 -20z m3585 -21 c8 -10 7 -14 -2 -14 -8 0 -14 6 -14 14 0 7 1
13 2 13 2 0 8 -6 14 -13z m36 -27 c4 -6 1 -9 -7 -8 -7 2 -13 -5 -13 -14 0 -9
-4 -20 -9 -25 -5 -4 -6 -3 -2 4 3 6 1 15 -4 18 -7 5 -5 12 7 21 22 16 20 16
28 4z m-3658 -75 c0 -8 -4 -12 -9 -9 -5 3 -6 10 -3 15 9 13 12 11 12 -6z
m3683 -65 c0 -5 -2 -10 -4 -10 -3 0 -8 5 -11 10 -3 6 -1 10 4 10 6 0 11 -4 11
-10z m36 -73 c0 -20 -5 -34 -13 -34 -7 0 -9 5 -5 11 4 6 7 19 8 29 3 41 10 37
10 -6z m-3756 8 c-6 -8 -8 -20 -4 -27 5 -10 4 -10 -6 -1 -11 10 -11 15 0 28 7
8 15 15 17 15 3 0 0 -7 -7 -15z m-25 -44 c3 -5 2 -12 -3 -15 -5 -3 -9 1 -9 9
0 17 3 19 12 6z m-5 -65 c0 -2 -8 -10 -17 -17 -16 -13 -17 -12 -4 4 13 16 21
21 21 13z m-26 -105 c3 -5 -1 -11 -9 -14 -9 -4 -12 -1 -8 9 6 16 10 17 17 5z
m-23 -44 c-6 -8 -7 -18 -3 -22 4 -5 1 -5 -6 -1 -10 6 -10 11 -1 22 6 8 14 14
16 14 3 0 0 -6 -6 -13z m3874 5 c-3 -3 0 -10 5 -17 7 -8 5 -12 -5 -12 -8 0
-13 3 -10 5 3 3 0 10 -5 17 -7 8 -5 12 5 12 8 0 13 -3 10 -5z m21 -117 c-1 -8
-5 -17 -8 -21 -5 -4 -4 16 1 34 3 9 9 -1 7 -13z m-3896 -30 c-10 -12 -10 -18
1 -32 12 -17 12 -17 -6 -1 -15 14 -16 20 -5 32 7 9 15 16 17 16 3 0 0 -7 -7
-15z m3910 -10 c0 -2 -6 -8 -13 -14 -10 -8 -14 -7 -14 2 0 8 6 14 14 14 7 0
13 -1 13 -2z m-3911 -98 c8 -10 7 -14 -2 -14 -8 0 -14 6 -14 14 0 7 1 13 2 13
2 0 8 -6 14 -13z m3897 -22 c-1 -8 -5 -17 -8 -21 -5 -4 -4 16 1 34 3 9 9 -1 7
-13z m15 -42 c-12 -20 -14 -14 -5 12 4 9 9 14 11 11 3 -2 0 -13 -6 -23z
m-3891 13 c0 -2 -8 -10 -17 -17 -16 -13 -17 -12 -4 4 13 16 21 21 21 13z m-20
-111 c14 -19 14 -19 -2 -6 -10 7 -18 18 -18 24 0 6 1 8 3 6 1 -2 9 -13 17 -24z
m3877 -62 c-4 -3 -2 -11 3 -18 7 -8 5 -12 -4 -12 -8 0 -12 7 -11 16 5 22 4 21
12 21 3 0 3 -3 0 -7z m-3844 -116 c4 3 7 1 7 -5 0 -17 -16 -15 -31 6 -12 15
-12 16 2 5 9 -7 19 -10 22 -6z m-19 -45 c3 -5 -1 -9 -9 -9 -8 0 -12 4 -9 9 3
4 7 8 9 8 2 0 6 -4 9 -8z m-1 -37 c-3 -9 -8 -14 -10 -11 -3 3 -2 9 2 15 9 16
15 13 8 -4z m24 -2 c-4 -3 -2 -11 3 -18 7 -8 5 -12 -4 -12 -8 0 -12 7 -11 16
5 22 4 21 12 21 3 0 3 -3 0 -7z m3814 -50 c13 -16 12 -17 -3 -4 -17 13 -22 21
-14 21 2 0 10 -8 17 -17z m-3776 -111 c-3 -3 0 -10 5 -17 7 -8 5 -12 -4 -12
-8 0 -13 7 -11 16 1 9 -3 23 -9 31 -10 13 -9 13 7 1 9 -8 15 -16 12 -19z
m3738 3 c-3 -9 -8 -14 -10 -11 -3 3 -2 9 2 15 9 16 15 13 8 -4z m-3730 -70
c-3 -9 -8 -14 -10 -11 -3 3 -2 9 2 15 9 16 15 13 8 -4z m27 -9 c0 -2 -8 -10
-17 -17 -16 -13 -17 -12 -4 4 13 16 21 21 21 13z m21 -53 c13 -17 13 -17 -6
-3 -11 8 -22 16 -24 17 -2 2 0 3 6 3 6 0 17 -8 24 -17z m6 -40 c0 -9 -4 -10
-14 -2 -7 6 -13 12 -13 14 0 1 6 2 13 2 8 0 14 -6 14 -14z m3639 -5 c4 -7 3
-8 -5 -4 -6 4 -20 2 -29 -6 -15 -12 -16 -11 -3 5 16 20 27 22 37 5z m-3608
-123 c-3 -3 -9 2 -12 12 -6 14 -5 15 5 6 7 -7 10 -15 7 -18z m30 -15 c-7 -10
-14 -17 -17 -15 -4 4 18 35 25 35 2 0 -1 -9 -8 -20z m3477 -59 c3 -5 2 -12 -3
-15 -5 -3 -9 1 -9 9 0 17 3 19 12 6z m-3441 -37 c3 -8 2 -12 -4 -9 -6 3 -10
10 -10 16 0 14 7 11 14 -7z m16 -44 c6 -11 8 -20 6 -20 -3 0 -10 9 -16 20 -6
11 -8 20 -6 20 3 0 10 -9 16 -20z m3331 -67 c13 -16 12 -17 -3 -4 -17 13 -22
21 -14 21 2 0 10 -8 17 -17z m-3248 -7 c4 -10 1 -13 -8 -9 -8 3 -12 9 -9 14 7
12 11 11 17 -5z m-22 -23 c13 -16 12 -17 -3 -4 -10 7 -18 15 -18 17 0 8 8 3
21 -13z m3253 9 c3 -5 -1 -9 -9 -9 -8 0 -15 4 -15 9 0 4 4 8 9 8 6 0 12 -4 15
-8z m-3209 -60 c-3 -3 0 -11 6 -19 17 -20 5 -16 -14 5 -15 16 -15 19 -2 19 8
0 13 -3 10 -5z m34 -6 c9 -11 9 -16 -1 -22 -7 -4 -10 -4 -6 1 4 4 3 14 -3 22
-6 7 -9 13 -6 13 2 0 10 -6 16 -14z m3148 -3 c0 -9 -4 -10 -14 -2 -7 6 -13 12
-13 14 0 1 6 2 13 2 8 0 14 -6 14 -14z m-132 -132 c-9 -8 -36 -10 -30 -2 2 4
11 8 20 8 8 0 13 -3 10 -6z m-2908 -14 c0 -8 -6 -14 -14 -14 -9 0 -10 4 -2 14
6 7 12 13 14 13 1 0 2 -6 2 -13z m2864 -30 c-6 -8 -7 -18 -3 -22 4 -5 1 -5 -6
-1 -10 6 -10 11 -1 22 6 8 14 14 16 14 3 0 0 -6 -6 -13z m-2771 -73 c0 -8 -19
-13 -24 -6 -3 5 1 9 9 9 8 0 15 -2 15 -3z m2730 0 c0 -8 -19 -13 -24 -6 -3 5
1 9 9 9 8 0 15 -2 15 -3z m-65 -54 c-3 -5 -12 -10 -18 -10 -7 0 -6 4 3 10 19
12 23 12 15 0z m-90 -70 c-3 -5 -12 -10 -18 -10 -7 0 -6 4 3 10 19 12 23 12
15 0z m-55 -14 c0 -2 -8 -10 -17 -17 -16 -13 -17 -12 -4 4 13 16 21 21 21 13z
m20 -20 c0 -2 -8 -10 -17 -17 -16 -13 -17 -12 -4 4 13 16 21 21 21 13z m-2355
-16 c-3 -5 -12 -10 -18 -10 -7 0 -6 4 3 10 19 12 23 12 15 0z m2204 -83 c8
-10 7 -14 -2 -14 -8 0 -14 6 -14 14 0 7 1 13 2 13 2 0 8 -6 14 -13z m-74 -46
c-9 -8 -36 -10 -30 -2 2 4 11 8 20 8 8 0 13 -3 10 -6z m-1831 -50 c-2 -3 -12
3 -22 13 -16 17 -16 18 5 5 12 -7 20 -15 17 -18z m1703 4 c0 -8 -4 -12 -9 -9
-5 3 -6 10 -3 15 9 13 12 11 12 -6z m-1628 -19 c9 -11 9 -16 -1 -22 -7 -4 -10
-4 -6 1 4 4 3 14 -3 22 -6 7 -9 13 -6 13 2 0 10 -6 16 -14z m1625 -18 c-3 -5
-10 -6 -15 -2 -5 3 -18 0 -27 -8 -15 -12 -16 -11 -4 4 13 16 56 22 46 6z
m-1538 -24 c1 -9 0 -13 -4 -10 -3 4 -7 14 -8 22 -1 9 0 13 4 10 3 -4 7 -14 8
-22z m-31 6 c3 -6 -1 -7 -9 -4 -18 7 -21 14 -7 14 6 0 13 -4 16 -10z m132 -56
c24 -4 27 -13 4 -11 -12 1 -30 10 -39 21 -16 20 -16 20 2 6 10 -8 25 -15 33
-16z m1254 9 c13 -16 12 -17 -3 -4 -10 7 -18 15 -18 17 0 8 8 3 21 -13z
m-1193 -18 c-3 -3 -9 2 -12 12 -6 14 -5 15 5 6 7 -7 10 -15 7 -18z m1072 11
c0 -2 -8 -10 -17 -17 -16 -13 -17 -12 -4 4 13 16 21 21 21 13z m-1030 -10 c0
-2 -8 -10 -17 -17 -16 -13 -17 -12 -4 4 13 16 21 21 21 13z m960 -10 c0 -2 -7
-7 -16 -10 -8 -3 -12 -2 -9 4 6 10 25 14 25 6z m-943 -21 c0 -8 -4 -12 -9 -9
-5 3 -6 10 -3 15 9 13 12 11 12 -6z m55 3 c-14 -14 -44 -20 -36 -7 3 5 9 7 14
4 5 -3 11 -1 15 5 3 5 9 10 13 10 3 0 1 -5 -6 -12z m92 -10 c-3 -4 -9 -8 -15
-8 -5 0 -9 4 -9 8 0 5 7 9 15 9 8 0 12 -4 9 -9z m-43 -15 c13 -16 12 -17 -3
-4 -17 13 -22 21 -14 21 2 0 10 -8 17 -17z m794 8 c3 -5 2 -12 -3 -15 -5 -3
-9 1 -9 9 0 17 3 19 12 6z m-600 -10 c3 -5 0 -13 -6 -17 -7 -4 -9 -3 -5 4 3 5
0 13 -6 15 -9 4 -10 6 -1 6 6 1 14 -3 18 -8z m102 -15 c0 -15 -21 -16 -34 -1
-4 4 -3 5 4 1 6 -3 14 -2 18 4 8 14 12 13 12 -4z m124 -3 c13 -16 12 -17 -3
-4 -17 13 -22 21 -14 21 2 0 10 -8 17 -17z m76 4 c0 -7 -9 -14 -20 -14 -19 -2
-19 -2 -1 12 11 8 19 15 20 15 0 0 1 -6 1 -13z m-267 -1 c0 -2 -8 -10 -17 -17
-16 -13 -17 -12 -4 4 13 16 21 21 21 13z m301 -13 c13 -16 12 -17 -3 -4 -10 7
-18 15 -18 17 0 8 8 3 21 -13z m69 8 c0 -6 -4 -12 -8 -15 -5 -3 -9 1 -9 9 0 8
4 15 9 15 4 0 8 -4 8 -9z m-203 -17 c-3 -3 -12 -4 -19 -1 -8 3 -5 6 6 6 11 1
17 -2 13 -5z"/>
<path d="M2025 3750 c-4 -6 8 -10 30 -10 22 0 34 4 30 10 -3 6 -17 10 -30 10
-13 0 -27 -4 -30 -10z"/>
<path d="M1998 3661 c4 -10 36 -52 72 -92 36 -40 88 -98 115 -129 100 -112
190 -213 208 -234 27 -31 130 -148 142 -160 26 -30 103 -116 130 -146 17 -19
67 -75 110 -125 44 -49 91 -103 105 -119 14 -15 34 -38 45 -50 29 -32 140
-157 165 -186 12 -14 38 -43 58 -65 20 -22 52 -58 71 -80 19 -22 62 -71 97
-110 34 -38 78 -88 98 -110 20 -22 36 -42 36 -45 0 -3 -15 -21 -33 -41 -17
-19 -59 -66 -92 -104 -33 -38 -76 -85 -95 -106 -19 -21 -48 -53 -64 -71 -71
-83 -133 -153 -151 -172 -11 -12 -49 -55 -85 -96 -36 -41 -69 -80 -75 -86 -36
-39 -158 -176 -186 -209 -19 -21 -41 -46 -49 -55 -15 -16 -125 -140 -159 -178
-46 -54 -141 -161 -178 -201 -44 -49 -58 -65 -131 -150 -26 -29 -71 -79 -99
-110 -29 -31 -53 -62 -54 -68 -5 -49 -7 -48 62 -51 l65 -3 64 73 c36 40 77 87
92 103 15 17 35 39 45 51 10 12 49 55 86 96 37 42 76 86 86 97 33 38 145 164
161 181 8 9 30 34 49 55 29 35 146 166 176 199 6 6 42 47 80 91 39 44 75 85
80 91 6 6 37 42 70 79 33 37 69 77 80 89 11 12 52 57 90 101 39 44 75 85 80
91 6 6 39 44 75 84 36 41 82 92 103 114 70 75 82 126 39 167 -9 9 -30 31 -46
50 -59 69 -101 116 -180 203 -45 49 -87 97 -94 108 -8 10 -23 29 -35 41 -30
31 -186 206 -244 273 -20 24 -128 145 -164 185 -13 14 -51 56 -84 94 -33 37
-67 75 -75 85 -8 9 -40 45 -70 79 -30 35 -64 73 -75 85 -11 12 -49 55 -85 95
-36 41 -70 79 -75 85 -16 17 -168 189 -184 209 -12 14 -32 17 -98 17 -77 0
-82 -1 -75 -19z"/>
<path d="M1365 2995 c-206 -39 -368 -143 -466 -302 -39 -62 -60 -137 -66 -229
-19 -301 175 -508 602 -644 411 -130 504 -180 561 -296 45 -92 39 -233 -13
-313 -74 -116 -243 -178 -454 -167 -295 15 -479 165 -488 399 -1 15 -15 17
-142 17 l-141 0 5 -60 c9 -86 24 -135 65 -215 93 -177 304 -314 554 -359 119
-22 346 -15 453 13 203 54 347 159 420 306 42 86 47 105 51 227 11 318 -169
502 -642 652 -312 100 -398 141 -477 224 -106 114 -98 309 18 419 157 148 521
148 691 0 57 -50 102 -139 116 -231 l13 -76 139 0 139 0 -6 63 c-12 122 -70
256 -152 349 -86 98 -243 185 -388 217 -101 22 -290 25 -392 6z"/>
</g>
</svg>
